<svg width="27" height="27" fill="none" xmlns="http://www.w3.org/2000/svg"><path d="m26.072 23.977-4.871-4.866a11.535 11.535 0 0 0-1.33-15.577 11.568 11.568 0 0 0-15.985.347 11.538 11.538 0 0 0-.348 15.965 11.57 11.57 0 0 0 15.597 1.33l4.872 4.865a1.46 1.46 0 0 0 2.065-2.064ZM3.448 12.058c0-1.703.506-3.368 1.453-4.785a8.636 8.636 0 0 1 13.27-1.305 8.609 8.609 0 0 1 1.87 9.386 8.616 8.616 0 0 1-3.176 3.866 8.634 8.634 0 0 1-4.791 1.451 8.641 8.641 0 0 1-6.097-2.526 8.617 8.617 0 0 1-2.53-6.087Z" fill="#fff" stroke="#fff"/></svg>