<svg width="19" height="17" fill="none" xmlns="http://www.w3.org/2000/svg"><path d="M9.96 3.34c-2.037 0-3.712.925-4.997 2.116C3.76 6.574 2.93 7.903 2.503 8.84c.426.938 1.257 2.266 2.457 3.385 1.288 1.19 2.963 2.115 5 2.115 2.038 0 3.713-.925 4.997-2.115 1.203-1.12 2.034-2.447 2.46-3.385-.426-.937-1.257-2.266-2.457-3.384-1.287-1.19-2.962-2.116-5-2.116ZM3.941 4.36C5.413 2.99 7.435 1.84 9.961 1.84c2.524 0 4.546 1.15 6.018 2.519 1.462 1.36 2.44 2.981 2.906 4.097a.994.994 0 0 1 0 .768c-.466 1.116-1.444 2.741-2.906 4.097-1.472 1.37-3.494 2.52-6.019 2.52s-4.547-1.15-6.019-2.52c-1.462-1.356-2.44-2.98-2.903-4.097a.994.994 0 0 1 0-.768c.463-1.116 1.44-2.74 2.903-4.097Zm6.02 6.981a2.5 2.5 0 1 0 0-5h-.063A2.002 2.002 0 0 1 7.46 8.778v.062a2.5 2.5 0 0 0 2.5 2.5Zm0-6.5a4 4 0 1 1-.001 8 4 4 0 0 1 0-8Z" fill="#023E8A"/></svg>