<svg width="19" height="17" fill="none" xmlns="http://www.w3.org/2000/svg"><path d="M9.43 2.84c-2.037 0-3.712.925-4.996 2.116C3.23 6.074 2.399 7.403 1.974 8.34c.425.938 1.256 2.266 2.456 3.385 1.288 1.19 2.963 2.115 5 2.115 2.038 0 3.713-.925 4.997-2.115 1.203-1.12 2.035-2.447 2.46-3.385-.425-.937-1.257-2.266-2.457-3.384-1.287-1.19-2.962-2.116-5-2.116ZM3.412 3.86C4.883 2.49 6.905 1.34 9.43 1.34s4.547 1.15 6.02 2.519c1.462 1.36 2.44 2.981 2.905 4.097a.994.994 0 0 1 0 .768c-.465 1.116-1.443 2.741-2.906 4.097-1.472 1.37-3.494 2.52-6.019 2.52s-4.546-1.15-6.018-2.52C1.949 11.465.97 9.841.508 8.724a.994.994 0 0 1 0-.768C.971 6.84 1.95 5.216 3.412 3.859ZM9.43 10.84a2.5 2.5 0 1 0 0-5h-.062A2.002 2.002 0 0 1 6.93 8.278v.062a2.5 2.5 0 0 0 2.5 2.5Zm0-6.5a4 4 0 1 1 0 8 4 4 0 0 1 0-8Z" fill="#023E8A"/></svg>