<svg width="16" height="16" fill="none" xmlns="http://www.w3.org/2000/svg"><path d="M7.625 2.625 7.972 3l.375-.374a4.546 4.546 0 0 1 3.922-1.248A4.466 4.466 0 0 1 16 5.784v.182a4.675 4.675 0 0 1-1.488 3.421L8.866 14.66a1.269 1.269 0 0 1-1.732 0L1.487 9.387A4.68 4.68 0 0 1 0 5.966v-.182a4.466 4.466 0 0 1 3.731-4.406 4.492 4.492 0 0 1 3.894 1.247s-.028 0 0 0Zm.347 2.497L6.566 3.659a3.032 3.032 0 0 0-2.588-.802A2.967 2.967 0 0 0 1.5 5.784v.182c0 .88.366 1.725 1.01 2.325L8 13.415l5.49-5.124a3.18 3.18 0 0 0 1.01-2.325v-.182c0-1.45-1.05-2.688-2.478-2.927a3.032 3.032 0 0 0-2.588.802L7.972 5.122Z" fill="#023E8A"/></svg>