<svg width="19" height="16" fill="none" xmlns="http://www.w3.org/2000/svg"><path d="M9.96 2.5c-2.037 0-3.712.925-4.997 2.116C3.76 5.734 2.93 7.063 2.503 8c.426.938 1.257 2.266 2.457 3.384 1.288 1.191 2.963 2.116 5 2.116 2.038 0 3.713-.925 4.997-2.116 1.203-1.118 2.034-2.447 2.46-3.384-.426-.938-1.257-2.266-2.457-3.384-1.287-1.191-2.962-2.116-5-2.116ZM3.941 3.519C5.413 2.15 7.435 1 9.961 1c2.524 0 4.546 1.15 6.018 2.519 1.462 1.36 2.44 2.981 2.906 4.097a.994.994 0 0 1 0 .768c-.466 1.116-1.444 2.741-2.906 4.097C14.507 13.85 12.485 15 9.96 15s-4.547-1.15-6.019-2.519C2.48 11.125 1.501 9.5 1.038 8.384a.994.994 0 0 1 0-.768c.463-1.116 1.44-2.741 2.903-4.097Zm6.02 6.981a2.5 2.5 0 1 0 0-5h-.063A2.002 2.002 0 0 1 7.46 7.938V8a2.5 2.5 0 0 0 2.5 2.5Zm0-6.5a4 4 0 1 1-.001 8 4 4 0 0 1 0-8Z" fill="#023E8A"/></svg>