<svg width="17" height="15" fill="none" xmlns="http://www.w3.org/2000/svg"><path d="m8.945.71 1.759 3.618.115.238.261.038 3.928.58h.001c.14.021.257.12.302.256l.474-.157-.474.157a.374.374 0 0 1-.093.381l-2.85 2.82-.184.182.043.257.675 3.982v.001a.38.38 0 0 1-.153.369.375.375 0 0 1-.396.025h-.001l-3.506-1.872-.236-.126-.235.126-3.506 1.872a.378.378 0 0 1-.55-.394l.672-3.984.043-.256-.184-.182L2 5.82a.38.38 0 0 1-.091-.385.373.373 0 0 1 .3-.252l3.926-.58.261-.038.116-.238L8.269.713V.712a.376.376 0 0 1 .676-.003Z" fill="#03045E" stroke="#03045E"/></svg>