<svg width="17" height="17" fill="none" xmlns="http://www.w3.org/2000/svg"><path d="m8.135 2.965.347.375.375-.374a4.546 4.546 0 0 1 3.921-1.248 4.466 4.466 0 0 1 3.732 4.406v.182a4.675 4.675 0 0 1-1.488 3.421L9.375 15a1.268 1.268 0 0 1-1.73 0L1.996 9.727A4.68 4.68 0 0 1 .51 6.306v-.182A4.466 4.466 0 0 1 4.24 1.718a4.492 4.492 0 0 1 3.894 1.247s-.028 0 0 0Zm.347 2.497L7.075 3.999a3.032 3.032 0 0 0-2.587-.802A2.967 2.967 0 0 0 2.01 6.124v.182c0 .88.366 1.725 1.01 2.325l5.49 5.125L14 8.63a3.18 3.18 0 0 0 1.01-2.325v-.182c0-1.45-1.05-2.688-2.478-2.927A3.032 3.032 0 0 0 9.944 4L8.482 5.462Z" fill="#023E8A"/></svg>