<svg width="19" height="17" fill="none" xmlns="http://www.w3.org/2000/svg"><path d="M9.47 2.84c-2.038 0-3.713.925-4.997 2.116C3.27 6.074 2.439 7.403 2.013 8.34c.426.938 1.257 2.266 2.457 3.385 1.287 1.19 2.962 2.115 5 2.115 2.037 0 3.712-.925 4.997-2.115 1.203-1.12 2.034-2.447 2.46-3.385-.426-.937-1.257-2.266-2.457-3.384-1.288-1.19-2.963-2.116-5-2.116ZM3.45 3.86C4.923 2.49 6.945 1.34 9.47 1.34s4.547 1.15 6.019 2.519c1.462 1.36 2.44 2.981 2.906 4.097a.994.994 0 0 1 0 .768c-.466 1.116-1.444 2.741-2.906 4.097-1.472 1.37-3.494 2.52-6.02 2.52-2.524 0-4.546-1.15-6.018-2.52-1.462-1.356-2.44-2.98-2.903-4.097a.994.994 0 0 1 0-.768c.463-1.116 1.44-2.74 2.903-4.097ZM9.47 10.84a2.5 2.5 0 1 0 0-5h-.063A2.002 2.002 0 0 1 6.97 8.278v.062a2.5 2.5 0 0 0 2.5 2.5Zm0-6.5a4 4 0 1 1 0 8 4 4 0 0 1 0-8Z" fill="#023E8A"/></svg>