<svg width="17" height="17" fill="none" xmlns="http://www.w3.org/2000/svg"><path d="m8.095 2.965.347.375.375-.374a4.546 4.546 0 0 1 3.922-1.248 4.466 4.466 0 0 1 3.731 4.406v.182a4.675 4.675 0 0 1-1.487 3.421L9.336 15a1.268 1.268 0 0 1-1.731 0L1.957 9.727A4.68 4.68 0 0 1 .47 6.306v-.182a4.466 4.466 0 0 1 3.731-4.406 4.492 4.492 0 0 1 3.894 1.247s-.028 0 0 0Zm.347 2.497L7.036 3.999a3.032 3.032 0 0 0-2.588-.802A2.967 2.967 0 0 0 1.97 6.124v.182c0 .88.366 1.725 1.01 2.325l5.49 5.125 5.49-5.125a3.18 3.18 0 0 0 1.01-2.325v-.182c0-1.45-1.05-2.688-2.478-2.927A3.032 3.032 0 0 0 9.905 4L8.442 5.462Z" fill="#023E8A"/></svg>