<svg width="40" height="40" fill="none" xmlns="http://www.w3.org/2000/svg"><path d="M20 0c-1.58 0-2.857 1.117-2.857 2.5v1.398C10.67 4.797 5.714 9.703 5.714 15.625v2.61c0 3.546-1.384 6.992-3.91 9.757l-1.33 1.461c-.519.563-.617 1.336-.26 1.985.357.648 1.107 1.062 1.929 1.062h35.714c.822 0 1.572-.414 1.929-1.063.357-.648.259-1.421-.26-1.984L38.197 28c-2.526-2.773-3.91-6.219-3.91-9.766v-2.609c0-5.922-4.956-10.828-11.429-11.727V2.5C22.857 1.117 21.58 0 20 0Zm0 7.5h.714C25.84 7.5 30 11.14 30 15.625v2.61c0 3.742 1.241 7.39 3.545 10.515H6.455C8.76 25.625 10 21.977 10 18.234v-2.609c0-4.484 4.16-8.125 9.286-8.125H20ZM25.714 35H14.286c0 1.328.598 2.602 1.67 3.54C17.025 39.476 18.481 40 20 40c1.518 0 2.973-.523 4.045-1.46 1.071-.938 1.67-2.212 1.67-3.54Z" fill="#03045E"/></svg>